<?xml version="1.0" standalone="no"?>
<!DOCTYPE svg PUBLIC "-//W3C//DTD SVG 20010904//EN"
 "http://www.w3.org/TR/2001/REC-SVG-20010904/DTD/svg10.dtd">
<svg version="1.0" xmlns="http://www.w3.org/2000/svg"
 width="1280.000000pt" height="654.000000pt" viewBox="0 0 1280.000000 654.000000"
 preserveAspectRatio="xMidYMid meet">
<metadata>
Created by potrace 1.15, written by Peter Selinger 2001-2017
</metadata>
<g transform="translate(0.000000,654.000000) scale(0.100000,-0.100000)"
fill="#000000" stroke="none">
<path d="M5671 6529 c-178 -35 -349 -142 -466 -290 -73 -94 -148 -248 -182
-374 -24 -90 -27 -118 -27 -270 0 -142 3 -183 21 -251 89 -336 284 -567 558
-660 106 -36 259 -44 367 -20 207 46 407 203 522 408 161 290 173 674 30 977
-94 200 -242 352 -419 430 -118 53 -286 73 -404 50z"/>
<path d="M3627 5586 c-563 -685 -671 -813 -690 -810 -12 2 -94 10 -182 19 -88
8 -524 51 -970 95 -445 44 -1015 100 -1265 125 -250 24 -470 47 -488 49 l-32
5 0 -117 c0 -560 216 -1317 640 -2243 96 -208 329 -666 439 -861 107 -190 245
-413 263 -424 5 -3 23 3 39 15 39 29 46 27 60 -19 10 -34 15 -39 33 -34 48 15
143 58 278 127 257 132 416 172 678 172 266 0 402 -35 695 -180 257 -126 417
-174 651 -196 291 -27 560 33 893 196 297 146 426 180 691 180 270 0 409 -36
718 -188 289 -143 474 -190 747 -190 282 -1 478 49 780 198 292 145 429 180
695 180 267 0 402 -35 695 -180 329 -163 599 -222 889 -196 238 22 398 70 655
196 297 146 426 180 691 180 269 0 386 -30 700 -180 107 -51 230 -105 274
-120 130 -44 298 -74 453 -81 l143 -7 0 43 c0 24 -16 192 -35 374 -19 182 -70
684 -115 1116 -44 432 -85 823 -90 870 -5 47 -10 90 -10 96 0 15 109 3 -1595
174 -825 83 -1833 184 -2240 225 -407 41 -1257 126 -1890 190 -2436 245 -3039
306 -3041 308 -2 1 296 365 662 807 544 659 661 806 647 812 -10 3 -175 23
-368 43 -192 19 -368 38 -390 40 l-40 5 -668 -814z"/>
<path d="M10077 5779 c-136 -11 -257 -92 -318 -212 -33 -64 -59 -184 -59 -272
0 -45 -11 -272 -25 -505 -14 -232 -23 -425 -20 -428 3 -3 209 -25 458 -48
1594 -150 1870 -175 1875 -170 3 4 -5 88 -17 189 -41 338 -121 991 -140 1146
-11 85 -24 157 -29 160 -9 6 -291 31 -1392 124 -161 14 -284 20 -333 16z"/>
<path d="M2222 1230 c-190 -19 -384 -59 -577 -120 -222 -71 -385 -99 -613
-107 l-162 -6 0 -500 0 -500 168 6 c238 10 426 41 637 108 333 104 449 123
755 123 303 0 398 -15 740 -119 509 -155 990 -152 1490 10 238 76 395 104 631
112 268 9 500 -24 774 -111 292 -92 476 -121 770 -121 290 0 462 28 773 124
284 88 496 118 772 108 168 -6 350 -32 470 -66 36 -10 119 -35 185 -56 268
-82 454 -110 730 -110 295 0 447 24 764 120 255 77 414 105 631 112 270 9 503
-24 760 -106 265 -85 447 -117 713 -128 l167 -6 0 500 0 500 -167 6 c-195 7
-366 34 -538 84 -66 20 -149 44 -185 55 -221 65 -420 92 -675 92 -284 0 -495
-33 -780 -123 -463 -147 -885 -148 -1355 -6 -278 84 -401 108 -643 126 -296
23 -596 -15 -922 -116 -295 -91 -416 -110 -715 -109 -211 1 -249 4 -371 27
-76 15 -190 43 -255 63 -286 88 -433 118 -675 136 -308 23 -604 -17 -954 -128
-242 -77 -492 -110 -750 -101 -229 8 -348 31 -681 130 -229 68 -404 95 -649
101 -93 3 -212 1 -263 -4z"/>
</g>
</svg>
